<svg width="177" height="70" viewBox="0 0 177 70" fill="none" xmlns="http://www.w3.org/2000/svg">
<path d="M5.6 0L36.575 17.85L30.975 21.0875L0 3.2375L5.6 0Z" fill="#006191"/>
<path d="M0 3.23743V66.7624L5.6 69.9999V12.9499L25.375 24.3249V45.5874L30.975 48.8249V21.0874L0 3.23743Z" fill="#003C5A"/>
<path d="M30.975 21.0876L36.575 17.8501V52.0626L5.60001 70.0001V12.9501L11.2 16.1876V60.2876L30.975 48.8251V21.0876Z" fill="#40BFFF"/>
<path d="M25.3752 45.5875L30.9752 48.825L11.2002 60.2875V53.8125L25.3752 45.5875Z" fill="#006191"/>
<path d="M50.4873 18.2875C51.8873 18.2875 52.9373 19.425 53.0248 20.7375V35.525C53.0248 36.925 51.8873 37.975 50.4873 37.975H46.5498V18.2875H50.4873ZM51.0123 21.35C51.0123 20.65 50.4873 20.3 49.9623 20.3H48.6498V36.05H49.9623C50.4873 36.05 51.0123 35.7875 51.0123 35V21.35Z" fill="#003C5A"/>
<path d="M64.6625 18.2875C65.275 18.2875 65.45 18.725 65.45 19.075V38.0625H64.05C63.6125 38.0625 63.525 37.8 63.4375 37.625V18.2875H64.6625Z" fill="#003C5A"/>
<path d="M83.9123 38.0625H81.8998V27.9125L80.4123 34.7375H79.7998C78.5748 34.7375 78.3998 33.5125 78.3123 33.1625L77.0873 28V38.2375H75.0748V18.2875H76.2998C77.0873 18.2875 77.1748 18.9875 77.1748 18.9875L79.5373 30.3625L81.8123 18.9875C81.8123 18.9 81.9873 18.2875 82.6873 18.2875H83.9123V38.0625Z" fill="#003C5A"/>
<path d="M99.8371 36.05C99.5746 36.575 99.3121 37.3625 99.2246 37.5375C99.0496 37.8 98.7871 38.0625 98.0871 38.0625H93.5371V18.8125C93.5371 18.4625 93.7996 18.2875 94.1496 18.2875H99.3996L98.6996 19.775C98.6121 20.0375 98.2621 20.3 97.6496 20.3H96.0746C95.8121 20.3 95.6371 20.475 95.6371 20.7375V26.6H98.6996C98.4371 27.125 98.1746 27.9125 98.0871 28.0875C97.9121 28.35 97.6496 28.6125 97.0371 28.6125H96.1621C95.8996 28.6125 95.7246 28.875 95.7246 29.05V36.05H99.8371Z" fill="#003C5A"/>
<path d="M115.15 38.0625H114.187C113.05 38.0625 112.875 37.1875 112.787 36.75L110.6 26.95V37.975H108.587V18.2875H109.55C110.687 18.2875 110.862 18.8125 110.95 19.425L113.05 29.75V18.375H115.062V38.0625H115.15Z" fill="#003C5A"/>
<path d="M129.063 23.275V21C129.063 20.3875 128.625 19.8625 128.013 19.8625C127.4 19.8625 126.963 20.3 126.963 21V22.925C126.963 24.0625 127.838 25.55 127.838 25.55L130.288 30.1C131.25 31.9375 131.163 33.25 131.163 33.25V35.7875C131.163 37.1875 130.025 38.325 128.625 38.325H127.313C125.913 38.2375 124.863 37.1875 124.863 35.7875V33.775C124.863 33.1625 125.213 32.8125 125.388 32.6375C125.563 32.55 126.35 32.2 126.875 32.025V35.4375C126.875 36.05 127.313 36.4875 127.925 36.4875C128.538 36.4875 128.975 36.05 128.975 35.35V33.075C128.975 31.9375 128.1 30.3625 128.1 30.3625L125.65 25.8125C124.688 23.975 124.775 22.6625 124.775 22.6625V20.65C124.775 19.25 125.913 18.025 127.313 18.025H128.625C130.025 18.025 131.075 19.3375 131.075 20.65V21.4375C131.075 22.05 130.725 22.4 130.55 22.575C130.375 22.6625 129.588 23.1 129.063 23.275Z" fill="#003C5A"/>
<path d="M142.887 18.2875C143.5 18.2875 143.675 18.725 143.675 19.075V38.0625H142.275C141.837 38.0625 141.75 37.8 141.662 37.625V18.2875H142.887Z" fill="#003C5A"/>
<path d="M158.2 18.1124C159.6 18.1999 160.65 19.2499 160.65 20.6499V35.7874C160.65 37.1874 159.512 38.2374 158.2 38.2374H156.625C155.225 38.2374 154.087 37.0999 154.087 35.7874V20.6499C154.087 19.2499 155.225 18.1124 156.625 18.1124H158.2ZM157.5 36.4874C158.112 36.4874 158.55 36.0499 158.55 35.3499V20.9999C158.55 20.3874 158.112 19.8624 157.5 19.8624H157.15C156.537 19.8624 156.1 20.3874 156.1 20.9999V35.4374C156.1 36.0499 156.537 36.4874 157.15 36.5749H157.5V36.4874Z" fill="#003C5A"/>
<path d="M176.75 38.0625H175.787C174.65 38.0625 174.475 37.1875 174.387 36.75L172.2 26.95V37.975H170.188V18.2875H171.15C172.287 18.2875 172.462 18.8125 172.55 19.425L174.65 29.75V18.375H176.662V38.0625H176.75Z" fill="#003C5A"/>
<path d="M46.8125 43.1375H47.6875V51.625H46.8125V43.1375Z" fill="#003C5A"/>
<path d="M55.2998 51.625V43.1375H55.4748L61.1623 49.6125V43.1375H62.0373V51.625H61.8623L56.2623 45.15V51.625H55.2998Z" fill="#003C5A"/>
<path d="M69.2123 43.1375H70.1748L72.9748 49.7L75.8623 43.1375H76.8248L73.1498 51.625H72.9748L69.2123 43.1375Z" fill="#003C5A"/>
<path d="M83.9121 43.1375H88.8121V44.0125H84.7871V46.6375H88.8121V47.5125H84.7871V50.8375H88.8121V51.7125H83.9996V43.1375H83.9121Z" fill="#003C5A"/>
<path d="M95.1123 50.05L95.8123 49.6125C96.3373 50.575 96.9498 51.0125 97.5623 51.0125C97.8248 51.0125 98.0873 50.925 98.3498 50.8375C98.6123 50.6625 98.7873 50.4875 98.9623 50.3125C99.0498 50.05 99.1373 49.875 99.1373 49.6125C99.1373 49.35 99.0498 49.0875 98.8748 48.7375C98.6123 48.3875 98.0873 47.8625 97.3873 47.3375C96.6873 46.8125 96.2498 46.375 96.0748 46.2C95.8123 45.7625 95.6373 45.325 95.6373 44.8875C95.6373 44.5375 95.7248 44.1875 95.8998 43.8375C96.0748 43.575 96.3373 43.3125 96.6873 43.1375C97.0373 42.9625 97.3873 42.875 97.7373 42.875C98.1748 42.875 98.5248 42.9625 98.8748 43.1375C99.2248 43.3125 99.5748 43.6625 100.012 44.275L99.3123 44.8C98.9623 44.3625 98.6998 44.1 98.5248 43.925C98.2623 43.75 98.0873 43.75 97.8248 43.75C97.4748 43.75 97.2123 43.8375 96.9498 44.1C96.7748 44.275 96.5998 44.5375 96.5998 44.8875C96.5998 45.0625 96.5998 45.2375 96.6873 45.4125C96.7748 45.5875 96.8623 45.7625 97.1248 45.9375C97.2123 46.025 97.5623 46.2875 98.2623 46.8125C98.9623 47.3375 99.4873 47.8625 99.7498 48.3C100.012 48.7375 100.187 49.175 100.187 49.6125C100.187 50.225 99.9248 50.75 99.4873 51.1875C99.0498 51.625 98.4373 51.8875 97.7373 51.8875C97.2123 51.8875 96.7748 51.7125 96.3373 51.45C95.8123 51.1875 95.4623 50.6625 95.1123 50.05Z" fill="#003C5A"/>
<path d="M106.75 43.9249V43.0499H111.388V43.9249H109.463V51.6249H108.588V43.9249H106.75Z" fill="#003C5A"/>
<path d="M118.037 51.625L119.262 43.1375H119.437L122.85 50.1375L126.262 43.1375H126.437L127.662 51.625H126.787L125.912 45.5875L122.937 51.625H122.762L119.7 45.5L118.825 51.625H118.037Z" fill="#003C5A"/>
<path d="M135.012 43.1375H139.912V44.0125H135.887V46.6375H139.912V47.5125H135.887V50.8375H139.912V51.7125H135.1V43.1375H135.012Z" fill="#003C5A"/>
<path d="M147.175 51.625V43.1375H147.35L153.037 49.6125V43.1375H153.912V51.625H153.737L148.137 45.15V51.625H147.175Z" fill="#003C5A"/>
<path d="M160.825 43.9249V43.0499H165.462V43.9249H163.537V51.6249H162.662V43.9249H160.825Z" fill="#003C5A"/>
<path d="M171.5 50.05L172.2 49.6125C172.725 50.575 173.337 51.0125 173.95 51.0125C174.212 51.0125 174.475 50.925 174.737 50.8375C175 50.6625 175.175 50.4875 175.35 50.3125C175.437 50.05 175.525 49.875 175.525 49.6125C175.525 49.35 175.437 49.0875 175.262 48.7375C175 48.3875 174.475 47.8625 173.775 47.3375C173.075 46.8125 172.637 46.375 172.462 46.2C172.2 45.7625 172.025 45.325 172.025 44.8875C172.025 44.5375 172.112 44.1875 172.287 43.8375C172.462 43.4875 172.725 43.3125 173.075 43.1375C173.425 42.9625 173.775 42.875 174.125 42.875C174.562 42.875 174.912 42.9625 175.262 43.1375C175.612 43.3125 175.962 43.6625 176.4 44.275L175.7 44.8C175.35 44.3625 175.087 44.1 174.912 43.925C174.65 43.75 174.475 43.75 174.212 43.75C173.862 43.75 173.6 43.8375 173.337 44.1C173.162 44.275 172.987 44.5375 172.987 44.8875C172.987 45.0625 172.987 45.2375 173.075 45.4125C173.162 45.5875 173.25 45.7625 173.512 45.9375C173.6 46.025 173.95 46.2875 174.65 46.8125C175.35 47.3375 175.875 47.8625 176.137 48.3C176.4 48.7375 176.575 49.175 176.575 49.6125C176.575 50.225 176.312 50.75 175.875 51.1875C175.437 51.625 174.825 51.8875 174.125 51.8875C173.6 51.8875 173.162 51.7125 172.725 51.45C172.287 51.1875 171.85 50.6625 171.5 50.05Z" fill="#003C5A"/>
</svg>
